<?xml version="1.0" encoding="iso-8859-1"?>
<!-- Generator: Adobe Illustrator 19.0.0, SVG Export Plug-In . SVG Version: 6.00 Build 0)  -->
<svg version="1.1" id="Layer_1" xmlns="http://www.w3.org/2000/svg" xmlns:xlink="http://www.w3.org/1999/xlink" x="0px" y="0px"
	 viewBox="0 0 512.003 512.003" style="enable-background:new 0 0 512.003 512.003;" xml:space="preserve">
<path style="fill:#5f6673;" d="M385.155,287.612c-0.001-2.189-1.091-4.919-2.734-7.103c-1.914-1.914-4.371-3.28-7.103-3.283
	c-55.472-0.272-91.817-44.815-91.814-84.165c-0.275-25.96,19.799-121.813,19.858-131.159c0.162-26.269-21.09-47.661-47.36-47.661
	l0,0c-26.271,0-47.524,21.39-47.36,47.661c0.058,9.346,20.133,105.199,19.858,131.159c0.003,39.35-36.342,83.893-91.814,84.165
	c-2.734,0.003-5.189,1.369-7.103,3.283c-1.643,2.185-2.734,4.916-2.734,7.103l-0.172,78.648h258.654L385.155,287.612z"/>
<path style="fill:#2b303a;" d="M399.569,366.23l-0.172-78.649c-0.009-5.218-2.046-10.914-5.592-15.632
	c-0.402-0.534-0.842-1.038-1.313-1.512c-4.801-4.799-10.893-7.447-17.105-7.452c-45.759-0.224-77.645-37.03-77.642-69.922
	c0-0.05,0-0.101-0.001-0.152c-0.159-15.155,8.092-61.032,13.553-91.389c4.65-25.853,6.279-35.278,6.306-39.529
	c0.103-16.527-6.258-32.087-17.908-43.813C288.042,6.455,272.525,0,256,0c-16.524,0-32.04,6.455-43.69,18.179
	c-11.653,11.725-18.012,27.285-17.911,43.814c0.027,4.25,1.656,13.673,6.305,39.513c5.461,30.362,13.716,76.247,13.556,91.405
	c-0.001,0.051-0.001,0.103-0.001,0.152c0.004,32.893-31.883,69.697-77.585,69.922c-6.266,0.007-12.36,2.653-17.161,7.452
	c-0.471,0.473-0.911,0.978-1.312,1.512c-3.552,4.724-5.592,10.429-5.595,15.632l-0.171,78.649c0,0.006,0,0.01,0,0.01
	c0,0.01,0,0.016,0,0.016v131.504c0,7.864,6.377,14.241,14.241,14.241h133.593c4.534,0,8.795-2.159,11.48-5.812l38.457-52.369
	c0.053-0.073,0.094-0.148,0.147-0.222c0.154-0.216,0.296-0.439,0.439-0.664c0.111-0.178,0.222-0.355,0.325-0.534
	c0.124-0.221,0.239-0.446,0.352-0.674c0.098-0.197,0.197-0.392,0.285-0.592c0.095-0.215,0.179-0.437,0.265-0.659
	c0.084-0.218,0.168-0.436,0.239-0.655c0.068-0.209,0.127-0.424,0.185-0.638c0.067-0.239,0.132-0.48,0.185-0.722
	c0.044-0.202,0.078-0.406,0.114-0.611c0.046-0.262,0.09-0.523,0.12-0.785c0.023-0.197,0.037-0.393,0.051-0.592
	c0.02-0.275,0.037-0.551,0.041-0.827c0.001-0.085,0.013-0.168,0.013-0.254v-31.805c0-7.864-6.377-14.241-14.241-14.241
	c-7.864,0-14.241,6.377-14.241,14.241v27.136l-31.426,42.796h-112.14V380.503h230.17v103.017h-33.905
	c-7.864,0-14.241,6.377-14.241,14.241c0,7.864,6.377,14.241,14.241,14.241h48.146c7.864,0,14.241-6.377,14.241-14.241V366.262
	c0,0,0-0.01,0-0.014C399.567,366.245,399.569,366.235,399.569,366.23z M140.946,352.02l0.132-60.653
	c60.979-2.534,101.624-52.068,101.661-98.239c0.152-16.55-6.253-53.571-14.005-96.664c-2.643-14.701-5.638-31.35-5.855-34.784
	c-0.02-8.837,3.399-17.151,9.633-23.422c6.263-6.303,14.604-9.775,23.486-9.775c8.884,0,17.226,3.472,23.489,9.774
	c6.233,6.272,9.65,14.586,9.631,23.422c-0.215,3.432-3.211,20.09-5.857,34.8c-7.75,43.094-14.154,80.115-14,96.659
	c0.04,46.154,40.664,95.666,101.66,98.228l0.134,60.656L140.946,352.02L140.946,352.02z"/>
<g>
</g>
<g>
</g>
<g>
</g>
<g>
</g>
<g>
</g>
<g>
</g>
<g>
</g>
<g>
</g>
<g>
</g>
<g>
</g>
<g>
</g>
<g>
</g>
<g>
</g>
<g>
</g>
<g>
</g>
</svg>
